<?xml version="1.0" encoding="UTF-8" standalone="no"?>
<!DOCTYPE svg PUBLIC "-//W3C//DTD SVG 1.1//EN"
 "http://www.w3.org/Graphics/SVG/1.1/DTD/svg11.dtd">
<!-- Generated by graphviz version 2.43.0 (0)
 -->
<!-- Title: %3 Pages: 1 -->
<svg width="635pt" height="260pt"
 viewBox="0.00 0.00 635.29 260.31" xmlns="http://www.w3.org/2000/svg" xmlns:xlink="http://www.w3.org/1999/xlink">
<g id="graph0" class="graph" transform="scale(1 1) rotate(0) translate(4 256.31)">
<title>%3</title>
<polygon fill="white" stroke="transparent" points="-4,4 -4,-256.31 631.29,-256.31 631.29,4 -4,4"/>
<!-- jqt -->
<g id="node1" class="node">
<title>jqt</title>
<ellipse fill="none" stroke="black" cx="141.71" cy="-63.42" rx="27" ry="18"/>
<text text-anchor="middle" x="141.71" y="-59.72" font-family="Times,serif" font-size="14.00">jqt</text>
</g>
<!-- rhn -->
<g id="node2" class="node">
<title>rhn</title>
<ellipse fill="none" stroke="black" cx="88.6" cy="-182.82" rx="27" ry="18"/>
<text text-anchor="middle" x="88.6" y="-179.12" font-family="Times,serif" font-size="14.00">rhn</text>
</g>
<!-- jqt&#45;&#45;rhn -->
<g id="edge1" class="edge">
<title>jqt&#45;&#45;rhn</title>
<path fill="none" stroke="black" d="M133.99,-80.78C123.92,-103.42 106.4,-142.79 96.33,-165.43"/>
<text text-anchor="middle" x="128.66" y="-111.91" font-family="Times,serif" font-size="14.00">jqt&#45;&#45;rhn</text>
</g>
<!-- xhk -->
<g id="node3" class="node">
<title>xhk</title>
<ellipse fill="none" stroke="black" cx="73.26" cy="-99.72" rx="27.1" ry="18"/>
<text text-anchor="middle" x="73.26" y="-96.02" font-family="Times,serif" font-size="14.00">xhk</text>
</g>
<!-- jqt&#45;&#45;xhk -->
<g id="edge2" class="edge">
<title>jqt&#45;&#45;xhk</title>
<path fill="none" stroke="black" d="M120.43,-74.7C112.26,-79.03 102.95,-83.97 94.76,-88.31"/>
<text text-anchor="middle" x="80.1" y="-70.31" font-family="Times,serif" font-size="14.00">jqt&#45;&#45;xhk</text>
</g>
<!-- nvd -->
<g id="node4" class="node">
<title>nvd</title>
<ellipse fill="none" stroke="black" cx="335.74" cy="-86.03" rx="27.9" ry="18"/>
<text text-anchor="middle" x="335.74" y="-82.33" font-family="Times,serif" font-size="14.00">nvd</text>
</g>
<!-- jqt&#45;&#45;nvd -->
<g id="edge3" class="edge">
<title>jqt&#45;&#45;nvd</title>
<path fill="none" stroke="black" d="M168.69,-66.56C205.45,-70.85 270.93,-78.48 308.05,-82.8"/>
<text text-anchor="middle" x="210.87" y="-78.48" font-family="Times,serif" font-size="14.00">jqt&#45;&#45;nvd</text>
</g>
<!-- rhn&#45;&#45;xhk -->
<g id="edge12" class="edge">
<title>rhn&#45;&#45;xhk</title>
<path fill="none" stroke="black" d="M85.27,-164.78C82.69,-150.85 79.15,-131.64 76.58,-117.71"/>
<text text-anchor="middle" x="110.92" y="-145.05" font-family="Times,serif" font-size="14.00">rhn&#45;&#45;xhk</text>
</g>
<!-- hfx -->
<g id="node9" class="node">
<title>hfx</title>
<ellipse fill="none" stroke="black" cx="171.63" cy="-205.02" rx="27" ry="18"/>
<text text-anchor="middle" x="171.63" y="-201.32" font-family="Times,serif" font-size="14.00">hfx</text>
</g>
<!-- rhn&#45;&#45;hfx -->
<g id="edge13" class="edge">
<title>rhn&#45;&#45;hfx</title>
<path fill="none" stroke="black" d="M113.96,-189.6C124.26,-192.35 136.13,-195.53 146.42,-198.28"/>
<text text-anchor="middle" x="144.44" y="-182.74" font-family="Times,serif" font-size="14.00">rhn&#45;&#45;hfx</text>
</g>
<!-- bvb -->
<g id="node13" class="node">
<title>bvb</title>
<ellipse fill="none" stroke="black" cx="183.06" cy="-115.12" rx="27.9" ry="18"/>
<text text-anchor="middle" x="183.06" y="-111.42" font-family="Times,serif" font-size="14.00">bvb</text>
</g>
<!-- rhn&#45;&#45;bvb -->
<g id="edge14" class="edge">
<title>rhn&#45;&#45;bvb</title>
<path fill="none" stroke="black" d="M107.26,-169.44C123.71,-157.65 147.57,-140.55 164.11,-128.7"/>
<text text-anchor="middle" x="166.19" y="-152.87" font-family="Times,serif" font-size="14.00">rhn&#45;&#45;bvb</text>
</g>
<!-- xhk&#45;&#45;hfx -->
<g id="edge7" class="edge">
<title>xhk&#45;&#45;hfx</title>
<path fill="none" stroke="black" d="M87.77,-115.25C106.37,-135.16 138.43,-169.48 157.05,-189.42"/>
<text text-anchor="middle" x="151.41" y="-141.14" font-family="Times,serif" font-size="14.00">xhk&#45;&#45;hfx</text>
</g>
<!-- lhk -->
<g id="node12" class="node">
<title>lhk</title>
<ellipse fill="none" stroke="black" cx="464.78" cy="-108.46" rx="27" ry="18"/>
<text text-anchor="middle" x="464.78" y="-104.76" font-family="Times,serif" font-size="14.00">lhk</text>
</g>
<!-- nvd&#45;&#45;lhk -->
<g id="edge25" class="edge">
<title>nvd&#45;&#45;lhk</title>
<path fill="none" stroke="black" d="M362.79,-90.73C385.11,-94.61 416.58,-100.09 438.64,-103.92"/>
<text text-anchor="middle" x="400.72" y="-86.13" font-family="Times,serif" font-size="14.00">nvd&#45;&#45;lhk</text>
</g>
<!-- rsh -->
<g id="node5" class="node">
<title>rsh</title>
<ellipse fill="none" stroke="black" cx="554.43" cy="-234.31" rx="27" ry="18"/>
<text text-anchor="middle" x="554.43" y="-230.61" font-family="Times,serif" font-size="14.00">rsh</text>
</g>
<!-- frs -->
<g id="node6" class="node">
<title>frs</title>
<ellipse fill="none" stroke="black" cx="596.02" cy="-126.44" rx="27" ry="18"/>
<text text-anchor="middle" x="596.02" y="-122.74" font-family="Times,serif" font-size="14.00">frs</text>
</g>
<!-- rsh&#45;&#45;frs -->
<g id="edge4" class="edge">
<title>rsh&#45;&#45;frs</title>
<path fill="none" stroke="black" d="M561.3,-216.5C569.05,-196.39 581.58,-163.89 589.28,-143.92"/>
<text text-anchor="middle" x="601.29" y="-184.01" font-family="Times,serif" font-size="14.00">rsh&#45;&#45;frs</text>
</g>
<!-- pzl -->
<g id="node7" class="node">
<title>pzl</title>
<ellipse fill="none" stroke="black" cx="375.97" cy="-225.81" rx="27" ry="18"/>
<text text-anchor="middle" x="375.97" y="-222.11" font-family="Times,serif" font-size="14.00">pzl</text>
</g>
<!-- rsh&#45;&#45;pzl -->
<g id="edge5" class="edge">
<title>rsh&#45;&#45;pzl</title>
<path fill="none" stroke="black" d="M527.33,-233.02C493.69,-231.42 436.66,-228.7 403.03,-227.1"/>
<text text-anchor="middle" x="438.18" y="-233.86" font-family="Times,serif" font-size="14.00">rsh&#45;&#45;pzl</text>
</g>
<!-- lsr -->
<g id="node8" class="node">
<title>lsr</title>
<ellipse fill="none" stroke="black" cx="512.87" cy="-194.98" rx="27" ry="18"/>
<text text-anchor="middle" x="512.87" y="-191.28" font-family="Times,serif" font-size="14.00">lsr</text>
</g>
<!-- rsh&#45;&#45;lsr -->
<g id="edge6" class="edge">
<title>rsh&#45;&#45;lsr</title>
<path fill="none" stroke="black" d="M538.48,-219.22C535.19,-216.1 531.72,-212.82 528.43,-209.71"/>
<text text-anchor="middle" x="507.46" y="-218.26" font-family="Times,serif" font-size="14.00">rsh&#45;&#45;lsr</text>
</g>
<!-- frs&#45;&#45;lsr -->
<g id="edge31" class="edge">
<title>frs&#45;&#45;lsr</title>
<path fill="none" stroke="black" d="M578.79,-140.64C564.52,-152.41 544.34,-169.04 530.08,-180.8"/>
<text text-anchor="middle" x="530.43" y="-149.52" font-family="Times,serif" font-size="14.00">frs&#45;&#45;lsr</text>
</g>
<!-- qnr -->
<g id="node11" class="node">
<title>qnr</title>
<ellipse fill="none" stroke="black" cx="489.19" cy="-18" rx="27" ry="18"/>
<text text-anchor="middle" x="489.19" y="-14.3" font-family="Times,serif" font-size="14.00">qnr</text>
</g>
<!-- frs&#45;&#45;qnr -->
<g id="edge32" class="edge">
<title>frs&#45;&#45;qnr</title>
<path fill="none" stroke="black" d="M581.17,-111.36C560.87,-90.76 524.67,-54.02 504.26,-33.3"/>
<text text-anchor="middle" x="515.71" y="-61.13" font-family="Times,serif" font-size="14.00">frs&#45;&#45;qnr</text>
</g>
<!-- frs&#45;&#45;lhk -->
<g id="edge33" class="edge">
<title>frs&#45;&#45;lhk</title>
<path fill="none" stroke="black" d="M569.46,-122.8C546.69,-119.68 514.06,-115.21 491.3,-112.1"/>
<text text-anchor="middle" x="504.88" y="-121.25" font-family="Times,serif" font-size="14.00">frs&#45;&#45;lhk</text>
</g>
<!-- pzl&#45;&#45;nvd -->
<g id="edge17" class="edge">
<title>pzl&#45;&#45;nvd</title>
<path fill="none" stroke="black" d="M370.87,-208.11C363.18,-181.37 348.67,-130.95 340.92,-104.03"/>
<text text-anchor="middle" x="327.4" y="-159.87" font-family="Times,serif" font-size="14.00">pzl&#45;&#45;nvd</text>
</g>
<!-- pzl&#45;&#45;lsr -->
<g id="edge18" class="edge">
<title>pzl&#45;&#45;lsr</title>
<path fill="none" stroke="black" d="M401.72,-220.01C426.19,-214.5 462.8,-206.26 487.23,-200.75"/>
<text text-anchor="middle" x="456.73" y="-199.18" font-family="Times,serif" font-size="14.00">pzl&#45;&#45;lsr</text>
</g>
<!-- pzl&#45;&#45;hfx -->
<g id="edge19" class="edge">
<title>pzl&#45;&#45;hfx</title>
<path fill="none" stroke="black" d="M349.25,-223.09C310.09,-219.11 237.51,-211.72 198.35,-207.74"/>
<text text-anchor="middle" x="247.3" y="-219.22" font-family="Times,serif" font-size="14.00">pzl&#45;&#45;hfx</text>
</g>
<!-- lsr&#45;&#45;lhk -->
<g id="edge26" class="edge">
<title>lsr&#45;&#45;lhk</title>
<path fill="none" stroke="black" d="M503.37,-177.89C494.94,-162.72 482.68,-140.68 474.26,-125.52"/>
<text text-anchor="middle" x="463.81" y="-155.5" font-family="Times,serif" font-size="14.00">lsr&#45;&#45;lhk</text>
</g>
<!-- cmg -->
<g id="node10" class="node">
<title>cmg</title>
<ellipse fill="none" stroke="black" cx="383" cy="-44.23" rx="30.59" ry="18"/>
<text text-anchor="middle" x="383" y="-40.53" font-family="Times,serif" font-size="14.00">cmg</text>
</g>
<!-- cmg&#45;&#45;nvd -->
<g id="edge8" class="edge">
<title>cmg&#45;&#45;nvd</title>
<path fill="none" stroke="black" d="M365.94,-59.32C361.5,-63.25 356.72,-67.48 352.3,-71.38"/>
<text text-anchor="middle" x="392.12" y="-69.15" font-family="Times,serif" font-size="14.00">cmg&#45;&#45;nvd</text>
</g>
<!-- cmg&#45;&#45;qnr -->
<g id="edge9" class="edge">
<title>cmg&#45;&#45;qnr</title>
<path fill="none" stroke="black" d="M411.18,-37.27C427.52,-33.23 447.94,-28.19 463.79,-24.27"/>
<text text-anchor="middle" x="421.48" y="-19.57" font-family="Times,serif" font-size="14.00">cmg&#45;&#45;qnr</text>
</g>
<!-- cmg&#45;&#45;lhk -->
<g id="edge10" class="edge">
<title>cmg&#45;&#45;lhk</title>
<path fill="none" stroke="black" d="M401.55,-58.8C415.22,-69.54 433.69,-84.04 447.13,-94.61"/>
<text text-anchor="middle" x="454.84" y="-65.5" font-family="Times,serif" font-size="14.00">cmg&#45;&#45;lhk</text>
</g>
<!-- cmg&#45;&#45;bvb -->
<g id="edge11" class="edge">
<title>cmg&#45;&#45;bvb</title>
<path fill="none" stroke="black" d="M356.45,-53.64C317.57,-67.43 245.67,-92.92 207.83,-106.34"/>
<text text-anchor="middle" x="265.64" y="-68.79" font-family="Times,serif" font-size="14.00">cmg&#45;&#45;bvb</text>
</g>
<!-- qnr&#45;&#45;nvd -->
<g id="edge20" class="edge">
<title>qnr&#45;&#45;nvd</title>
<path fill="none" stroke="black" d="M466.55,-28.04C437.7,-40.83 388.11,-62.82 358.98,-75.73"/>
<text text-anchor="middle" x="443.26" y="-40.68" font-family="Times,serif" font-size="14.00">qnr&#45;&#45;nvd</text>
</g>
<!-- bvb&#45;&#45;xhk -->
<g id="edge15" class="edge">
<title>bvb&#45;&#45;xhk</title>
<path fill="none" stroke="black" d="M155.64,-111.27C138.74,-108.9 117.16,-105.88 100.33,-103.51"/>
<text text-anchor="middle" x="127.98" y="-96.19" font-family="Times,serif" font-size="14.00">bvb&#45;&#45;xhk</text>
</g>
<!-- bvb&#45;&#45;hfx -->
<g id="edge16" class="edge">
<title>bvb&#45;&#45;hfx</title>
<path fill="none" stroke="black" d="M180.75,-133.31C178.76,-148.91 175.92,-171.27 173.94,-186.85"/>
<text text-anchor="middle" x="206.34" y="-163.88" font-family="Times,serif" font-size="14.00">bvb&#45;&#45;hfx</text>
</g>
<!-- ntq -->
<g id="node14" class="node">
<title>ntq</title>
<ellipse fill="none" stroke="black" cx="44.85" cy="-143.05" rx="27" ry="18"/>
<text text-anchor="middle" x="44.85" y="-139.35" font-family="Times,serif" font-size="14.00">ntq</text>
</g>
<!-- ntq&#45;&#45;jqt -->
<g id="edge21" class="edge">
<title>ntq&#45;&#45;jqt</title>
<path fill="none" stroke="black" d="M62.17,-128.81C79.8,-114.32 106.97,-91.98 124.54,-77.53"/>
<text text-anchor="middle" x="119.86" y="-91.97" font-family="Times,serif" font-size="14.00">ntq&#45;&#45;jqt</text>
</g>
<!-- ntq&#45;&#45;xhk -->
<g id="edge22" class="edge">
<title>ntq&#45;&#45;xhk</title>
<path fill="none" stroke="black" d="M55.75,-126.42C57.88,-123.17 60.11,-119.77 62.25,-116.52"/>
<text text-anchor="middle" x="29.5" y="-110.27" font-family="Times,serif" font-size="14.00">ntq&#45;&#45;xhk</text>
</g>
<!-- ntq&#45;&#45;hfx -->
<g id="edge23" class="edge">
<title>ntq&#45;&#45;hfx</title>
<path fill="none" stroke="black" d="M66.65,-153.7C89.87,-165.05 126.42,-182.92 149.69,-194.3"/>
<text text-anchor="middle" x="122.17" y="-162.8" font-family="Times,serif" font-size="14.00">ntq&#45;&#45;hfx</text>
</g>
<!-- ntq&#45;&#45;bvb -->
<g id="edge24" class="edge">
<title>ntq&#45;&#45;bvb</title>
<path fill="none" stroke="black" d="M70.85,-137.8C95.25,-132.87 131.58,-125.52 156.24,-120.54"/>
<text text-anchor="middle" x="83.54" y="-132.97" font-family="Times,serif" font-size="14.00">ntq&#45;&#45;bvb</text>
</g>
<!-- rzs -->
<g id="node15" class="node">
<title>rzs</title>
<ellipse fill="none" stroke="black" cx="536.75" cy="-94.37" rx="27" ry="18"/>
<text text-anchor="middle" x="536.75" y="-90.67" font-family="Times,serif" font-size="14.00">rzs</text>
</g>
<!-- rzs&#45;&#45;rsh -->
<g id="edge27" class="edge">
<title>rzs&#45;&#45;rsh</title>
<path fill="none" stroke="black" d="M539.03,-112.37C542.42,-139.24 548.78,-189.54 552.17,-216.37"/>
<text text-anchor="middle" x="573.1" y="-168.17" font-family="Times,serif" font-size="14.00">rzs&#45;&#45;rsh</text>
</g>
<!-- rzs&#45;&#45;lsr -->
<g id="edge28" class="edge">
<title>rzs&#45;&#45;lsr</title>
<path fill="none" stroke="black" d="M532.48,-112.35C528.14,-130.67 521.44,-158.89 517.1,-177.15"/>
<text text-anchor="middle" x="537.29" y="-133.55" font-family="Times,serif" font-size="14.00">rzs&#45;&#45;lsr</text>
</g>
<!-- rzs&#45;&#45;cmg -->
<g id="edge29" class="edge">
<title>rzs&#45;&#45;cmg</title>
<path fill="none" stroke="black" d="M512.39,-86.42C484.45,-77.31 438.77,-62.41 409.83,-52.98"/>
<text text-anchor="middle" x="491.61" y="-73.5" font-family="Times,serif" font-size="14.00">rzs&#45;&#45;cmg</text>
</g>
<!-- rzs&#45;&#45;qnr -->
<g id="edge30" class="edge">
<title>rzs&#45;&#45;qnr</title>
<path fill="none" stroke="black" d="M526.2,-77.42C518.26,-64.67 507.44,-47.3 499.55,-34.64"/>
<text text-anchor="middle" x="540.88" y="-44.83" font-family="Times,serif" font-size="14.00">rzs&#45;&#45;qnr</text>
</g>
</g>
</svg>
